<svg xmlns="http://www.w3.org/2000/svg" viewBox="0 0 400 200">
  <defs>
    <linearGradient id="grad" x1="0%" y1="0%" x2="0%" y2="100%">
      <stop offset="0%" style="stop-color:#3ddad7;stop-opacity:1" />
      <stop offset="100%" style="stop-color:#007b7f;stop-opacity:1" />
    </linearGradient>
  </defs>
  <g fill="url(#grad)">
    <path d="M80 100c0-20 10-40 30-50v20c-10 5-15 15-15 30s5 25 15 30v20c-20-10-30-30-30-50z"/>
    <path d="M320 100c0 20-10 40-30 50v-20c10-5 15-15 15-30s-5-25-15-30V50c20 10 30 30 30 50z"/>
    <path d="M150 70a50 50 0 0 1 100 0v60a50 50 0 0 1-100 0V70zm20 10v40a30 30 0 0 0 60 0V80a30 30 0 0 0-60 0z"/>
  </g>
  <text x="200" y="170" text-anchor="middle" font-family="Segoe UI, sans-serif" font-size="32" fill="url(#grad)">
    DevCanvas
  </text>
</svg>
